{
    "asset": {
        "version": "2.0",
        "generator": "Open Asset Import Library (assimp v5.0.5eb040c7)"
    },
    "accessors": [
        {
            "bufferView": 0,
            "byteOffset": 0,
            "componentType": 5126,
            "count": 4314,
            "type": "VEC3",
            "max": [
                538.236572265625,
                749.5347900390625,
                35.045833587646487
            ],
            "min": [
                504.5943908691406,
                716.380615234375,
                1.22939133644104
            ]
        },
        {
            "bufferView": 1,
            "byteOffset": 0,
            "componentType": 5126,
            "count": 4314,
            "type": "VEC3",
            "max": [
                0.9974756240844727,
                0.9997907280921936,
                0.9994152188301086
            ],
            "min": [
                -0.9993464946746826,
                -0.9999544024467468,
                -0.999852180480957
            ]
        },
        {
            "bufferView": 2,
            "byteOffset": 0,
            "componentType": 5126,
            "count": 4314,
            "type": "VEC2",
            "max": [
                1.0,
                0.8659999370574951
            ],
            "min": [
                0.0,
                0.0
            ]
        },
        {
            "bufferView": 3,
            "byteOffset": 0,
            "componentType": 5125,
            "count": 24000,
            "type": "SCALAR",
            "max": [
                4313
            ],
            "min": [
                0
            ]
        }
    ],
    "buffers": [
        {
            "byteLength": 234048,
            "uri": "result.bin"
        }
    ],
    "bufferViews": [
        {
            "buffer": 0,
            "byteOffset": 0,
            "byteLength": 51768,
            "target": 34962
        },
        {
            "buffer": 0,
            "byteOffset": 51768,
            "byteLength": 51768,
            "target": 34962
        },
        {
            "buffer": 0,
            "byteOffset": 103536,
            "byteLength": 34512,
            "target": 34962
        },
        {
            "buffer": 0,
            "byteOffset": 138048,
            "byteLength": 96000,
            "target": 34963
        }
    ],
    "materials": [
        {
            "name": "DefaultMaterial",
            "pbrMetallicRoughness": {
                "baseColorFactor": [
                    0.6000000238418579,
                    0.6000000238418579,
                    0.6000000238418579,
                    1.0
                ],
                "metallicFactor": 0.0
            }
        },
        {
            "name": "Mat.2",
            "pbrMetallicRoughness": {
                "baseColorFactor": [
                    0.6000000238418579,
                    0.6000000238418579,
                    0.6000000238418579,
                    1.0
                ],
                "metallicFactor": 0.0
            }
        }
    ],
    "meshes": [
        {
            "name": "Sphere",
            "primitives": [
                {
                    "mode": 4,
                    "material": 1,
                    "indices": 3,
                    "attributes": {
                        "POSITION": 0,
                        "NORMAL": 1,
                        "TEXCOORD_0": 2
                    }
                }
            ]
        }
    ],
    "nodes": [
        {
            "name": "input.obj",
            "children": [
                1
            ]
        },
        {
            "name": "Sphere",
            "mesh": 0
        }
    ],
    "scenes": [
        {
            "nodes": [
                0
            ]
        }
    ],
    "scene": 0
}